<?xml version="1.0" encoding="utf-8"?>
<!-- Generator: Adobe Illustrator 18.0.0, SVG Export Plug-In . SVG Version: 6.00 Build 0)  -->
<!DOCTYPE svg PUBLIC "-//W3C//DTD SVG 1.1//EN" "http://www.w3.org/Graphics/SVG/1.1/DTD/svg11.dtd">
<svg version="1.1" id="Layer_1" xmlns="http://www.w3.org/2000/svg" xmlns:xlink="http://www.w3.org/1999/xlink" x="0px" y="0px"
	 viewBox="0 0 325.0172 138.006" style="enable-background:new 0 0 325.0172 138.006;" xml:space="preserve">
<path style="fill:#CF0A2C;" d="M24.9857,60.0442c-0.8714,1.9861-2.0858,3.489-3.6438,4.5088
	c-1.558,1.0198-3.459,1.5289-5.7028,1.5289c-4.4099,0-7.5252-1.7607-9.3467-5.2821s-2.7327-9.7585-2.7327-18.7095
	c0-9.2672,0.8844-15.6567,2.6532-19.1651s4.8322-5.2627,9.1886-5.2627c2.1644,0,3.9859,0.4232,5.4653,1.2711
	c1.4786,0.8479,2.6532,2.132,3.5247,3.8522V3.6805h10.6534v61.1708H24.9857V60.0442z M14.3323,41.1774
	c0,7.0963,0.3429,11.5581,1.0295,13.3853c0.6866,1.8272,1.9666,2.7416,3.8416,2.7416c2.1117,0,3.5579-0.8139,4.3369-2.4433
	c0.7782-1.6278,1.1681-4.9708,1.1681-10.0292c0-8.1291-0.3899-13.2004-1.1681-15.2141c-0.779-2.012-2.2252-3.0188-4.3369-3.0188
	c-1.8483,0-3.1226,0.8674-3.8222,2.6021S14.3323,34.9273,14.3323,41.1774z"/>
<path style="fill:#CF0A2C;" d="M44.9291,13.2136V3.6805h10.5351v9.5331H44.9291z M44.9291,64.8513V18.8929h10.5351v45.9583H44.9291z
	"/>
<path style="fill:#CF0A2C;" d="M65.4666,64.8513V18.8929h10.1387v7.4676c1.4519-3.0983,3.0034-5.3081,4.6539-6.6326
	c1.6497-1.3246,3.6633-1.999,6.0393-2.0266v12.9102c-0.3956-0.0535-0.792-0.0924-1.1884-0.12
	c-0.3956-0.0259-0.8844-0.0389-1.4648-0.0389c-2.2714,0-4.0735,0.6744-5.4062,2.025c-1.3335,1.3505-1.9998,3.1647-1.9998,5.4426
	v26.931H65.4666z"/>
<path style="fill:#CF0A2C;" d="M113.7271,49.0811h9.9798c0,0.2124,0.013,0.5172,0.0397,0.9144
	c0.0259,0.3972,0.0397,0.689,0.0397,0.8739c0,5.2432-1.2476,9.0889-3.7427,11.5386c-2.4951,2.4497-6.4494,3.6738-11.8613,3.6738
	c-2.8518,0-5.2416-0.3567-7.1685-1.0717c-1.9277-0.715-3.5117-1.8272-4.7528-3.3366c-1.4786-1.7737-2.5219-4.0127-3.1283-6.7137
	c-0.608-2.701-0.9112-7.56-0.9112-14.5769c0-5.5869,0.2635-9.5866,0.792-11.9958c0.5277-2.4092,1.4259-4.3823,2.6929-5.9193
	c1.3197-1.5889,3.0431-2.787,5.1686-3.5944c2.1247-0.8074,4.6531-1.2111,7.5843-1.2111c2.8251,0,5.2602,0.4296,7.3071,1.2905
	c2.0452,0.8609,3.7427,2.1644,5.0892,3.9121c1.1349,1.537,1.9463,3.463,2.4352,5.7799s0.7328,6.0571,0.7328,11.2209v3.4955h-20.8318
	c-0.0535,0.3453-0.0859,0.7085-0.0989,1.0927c-0.0138,0.3842-0.0203,1.0003-0.0203,1.8466c0,4.3693,0.4029,7.4287,1.2087,9.1764
	c0.805,1.7477,2.1709,2.6216,4.0986,2.6216c1.8742,0,3.2345-0.7085,4.0791-2.1255
	C113.304,54.5562,113.7271,52.2588,113.7271,49.0811z M103.0729,36.0525h10.2975V34.107c0-3.1518-0.3834-5.3227-1.1487-6.5143
	c-0.7661-1.1916-2.1125-1.7883-4.0394-1.7883c-1.875,0-3.2077,0.6161-4.0005,1.8483c-0.792,1.2305-1.1876,3.382-1.1876,6.4543
	C103.047,34.9809,103.0729,35.6294,103.0729,36.0525z"/>
<path style="fill:#CF0A2C;" d="M161.7502,46.8178c0.0259,0.3178,0.0462,0.655,0.0592,1.0133
	c0.013,0.3567,0.0203,0.8804,0.0203,1.5678c0,5.6939-1.2078,9.8979-3.6236,12.6119c-2.4165,2.714-6.1592,4.071-11.2281,4.071
	c-5.7563,0-9.7763-1.7072-12.0599-5.1232s-3.4258-9.7714-3.4258-19.0662c0-9.2688,1.1422-15.6242,3.4258-19.0662
	s6.3035-5.1638,12.0599-5.1638c5.043,0,8.7654,1.2581,11.1682,3.7727c2.4027,2.5162,3.6041,6.4089,3.6041,11.6781v1.6294h-10.1387
	v-1.0328c0-2.7805-0.3567-4.7795-1.0692-5.9987c-0.7134-1.2176-1.875-1.8272-3.4849-1.8272c-1.6375,0-2.8194,0.5966-3.5449,1.7883
	c-0.7263,1.1916-1.0895,3.1777-1.0895,5.9582v15.848c0,3.1518,0.3429,5.3502,1.0303,6.5937
	c0.6858,1.2451,1.8612,1.8677,3.5247,1.8677c1.7948,0,3.0423-0.715,3.7427-2.1449c0.6988-1.43,1.049-4.1051,1.049-8.0237v-0.9938
	L161.7502,46.8178z"/>
<path style="fill:#CF0A2C;" d="M181.6149,47.8505v3.0983c0,2.4627,0.2302,4.0256,0.6923,4.6871
	c0.4621,0.6615,1.3132,0.9922,2.5551,0.9922c0.2902,0,0.5204-0.0065,0.6931-0.0195c0.1711-0.013,0.3226-0.0195,0.4556-0.0195v8.262
	c-1.5321,0.1589-2.727,0.2643-3.5846,0.3178c-0.8585,0.0519-1.5516,0.0794-2.0793,0.0794c-3.5644,0-6.0133-0.7085-7.3468-2.1255
	c-1.3335-1.417-1.9998-4.3353-1.9998-8.7581V26.7983h-4.1189v-7.9053h4.1189V6.341h10.6145v12.5519h4.3961v7.9053h-4.3961V47.8505z"
	/>
<path d="M55.011,134.7678c-0.8187,0.1329-1.5248,0.2318-2.119,0.2983c-0.5942,0.0648-1.1422,0.0989-1.644,0.0989
	c-1.7956,0-3.2077-0.5691-4.2372-1.7088c-1.0303-1.1381-1.5848-2.7529-1.6634-4.8444c-0.9776,2.3298-2.3898,4.1164-4.238,5.3616
	c-1.8483,1.2451-4.0394,1.8661-6.5743,1.8661c-3.3009,0-5.8682-1.1122-7.7027-3.3366c-1.8361-2.2244-2.7529-5.3486-2.7529-9.3742
	c0-3.9446,0.8512-6.9504,2.5543-9.0159c1.7032-2.0655,5.3794-4.0516,11.0304-5.9582l0.1184-0.0389
	c4.6466-1.5629,6.9707-3.3901,6.9707-5.4815v-4.2105c0-1.8807-0.535-3.2507-1.6043-4.1116S40.37,93.0216,38.02,93.0216
	c-2.2706,0-3.96,0.595-5.0689,1.7866c-1.109,1.1916-1.6634,3.0188-1.6634,5.4815v0.7944h-5.9801
	c0.0786-4.6595,1.1876-8.0626,3.326-10.2076c2.1393-2.145,5.518-3.2182,10.1395-3.2182c4.3296,0,7.4911,0.9874,9.4853,2.9588
	c1.9925,1.9731,2.9896,5.0924,2.9896,9.3548v26.7332c0,1.19,0.2116,2.0444,0.6339,2.5616c0.4223,0.5156,1.109,0.775,2.059,0.775
	c0.1848,0,0.4758-0.0405,0.8714-0.12c0.0527,0,0.1054-0.013,0.1589-0.0389L55.011,134.7678z M44.9112,110.0223
	c-1.0036,1.1122-3.2215,2.2892-6.6537,3.5344c-0.2902,0.1054-0.5018,0.1848-0.6331,0.2383
	c-2.9572,1.0328-4.8849,2.1984-5.7823,3.4955c-0.8982,1.297-1.3465,3.2182-1.3465,5.7604c0,2.2763,0.501,4.037,1.5045,5.2821
	c1.0036,1.2451,2.4157,1.8677,4.238,1.8677c2.6394,0,4.7455-1.0068,6.3165-3.0188c1.571-2.0136,2.3565-4.7147,2.3565-8.1031
	V110.0223z"/>
<path d="M65.5217,134.6884V73.5176h6.3368v61.1708H65.5217z"/>
<path d="M131.3884,134.7678c-0.8187,0.1329-1.5248,0.2318-2.119,0.2983c-0.5942,0.0648-1.1422,0.0989-1.644,0.0989
	c-1.7956,0-3.2077-0.5691-4.2372-1.7088c-1.0303-1.1381-1.5848-2.7529-1.6634-4.8444c-0.9776,2.3298-2.3898,4.1164-4.238,5.3616
	c-1.8483,1.2451-4.0394,1.8661-6.5743,1.8661c-3.3009,0-5.8682-1.1122-7.7027-3.3366c-1.8361-2.2244-2.7529-5.3486-2.7529-9.3742
	c0-3.9446,0.8512-6.9504,2.5543-9.0159c1.7031-2.0655,5.3794-4.0516,11.0304-5.9582l0.1183-0.0389
	c4.6466-1.5629,6.9707-3.3901,6.9707-5.4815v-4.2105c0-1.8807-0.535-3.2507-1.6043-4.1116
	c-1.0692-0.8609-2.7789-1.2905-5.1289-1.2905c-2.2706,0-3.96,0.595-5.0689,1.7866c-1.1089,1.1916-1.6634,3.0188-1.6634,5.4815
	v0.7944h-5.9801c0.0786-4.6595,1.1876-8.0626,3.326-10.2076c2.1393-2.145,5.518-3.2182,10.1395-3.2182
	c4.3296,0,7.4911,0.9874,9.4853,2.9588c1.9926,1.9731,2.9896,5.0924,2.9896,9.3548v26.7332c0,1.19,0.2116,2.0444,0.6339,2.5616
	c0.4223,0.5156,1.1089,0.775,2.059,0.775c0.1848,0,0.4758-0.0405,0.8714-0.12c0.0527,0,0.1054-0.013,0.1589-0.0389
	L131.3884,134.7678z M121.2887,110.0223c-1.0036,1.1122-3.2215,2.2892-6.6537,3.5344c-0.2902,0.1054-0.5018,0.1848-0.6331,0.2383
	c-2.9572,1.0328-4.8849,2.1984-5.7823,3.4955c-0.8982,1.297-1.3465,3.2182-1.3465,5.7604c0,2.2763,0.501,4.037,1.5045,5.2821
	c1.0036,1.2451,2.4157,1.8677,4.238,1.8677c2.6394,0,4.7455-1.0068,6.3165-3.0188c1.571-2.0136,2.3565-4.7147,2.3565-8.1031
	V110.0223z"/>
<path d="M141.9778,134.6884V88.97h5.9015v7.4676c0.9241-2.6751,2.3168-4.7666,4.178-6.276
	c1.8612-1.5094,3.9932-2.2649,6.3959-2.2649c0.7134,0,1.2605,0.0146,1.644,0.0405c0.3826,0.0259,0.7458,0.0665,1.0887,0.1184v6.8321
	c-0.3429-0.1848-0.719-0.3243-1.1284-0.4167c-0.4094-0.0924-0.865-0.1394-1.3667-0.1394c-3.2742,0-5.8212,1.0863-7.6435,3.2571
	c-1.8215,2.1725-2.7327,5.2043-2.7327,9.097v28.0027H141.9778z"/>
<path d="M182.9053,125.2347c0,1.9066,0.3429,3.1583,1.0295,3.7533c0.6866,0.5966,2.3233,0.8949,4.9108,0.8949
	c0.3429,0,0.6266-0.0065,0.852-0.0211c0.2237-0.013,0.4159-0.0324,0.5739-0.06l0.0397,5.6015
	c-0.3964,0.0259-0.9249,0.0535-1.584,0.0795c-1.6107,0.0794-2.654,0.12-3.1291,0.12c-3.0099,0-5.2473-0.6031-6.7129-1.8077
	s-2.1985-3.0253-2.1985-5.4621V94.2521h-6.3368V88.97h6.3368V76.7747h6.2184V88.97h7.406v5.2821h-7.406V125.2347z"/>
<path d="M226.6491,120.9448h6.336c0,0.0535-0.013,0.1329-0.0389,0.2383c-0.0794,0.582-0.12,1.0198-0.12,1.31
	c0,2.4903,0.7069,4.3839,2.119,5.6809c1.4121,1.297,3.4663,1.9455,6.1592,1.9455c2.4546,0,4.3888-0.6615,5.8026-1.9845
	c1.4121-1.3246,2.1174-3.1258,2.1174-5.4021c0-3.6025-2.7594-6.3554-8.2766-8.262c-0.0795-0.0276-0.1329-0.0405-0.1589-0.0405
	c-5.5188-1.9326-9.0954-3.8521-10.7328-5.7588c-1.6375-1.9066-2.4546-4.6741-2.4546-8.3026c0-3.9981,1.1673-7.1158,3.5052-9.3548
	c2.3363-2.2374,5.5902-3.356,9.7617-3.356c4.4358,0,7.7757,1.0733,10.0195,3.2182s3.3674,5.3097,3.3674,9.4926v0.6355h-6.0603
	c-0.1313-2.7529-0.7523-4.7601-1.8612-6.0182c-1.1089-1.2565-2.8389-1.8856-5.1881-1.8856c-2.4822,0-4.3499,0.5885-5.6031,1.7672
	c-1.2549,1.1787-1.8823,2.9329-1.8823,5.2627c0,1.0328,0.1654,1.9601,0.4961,2.7805c0.3291,0.822,0.8106,1.4835,1.4446,1.9861
	c1.1624,1.0068,3.4711,2.0655,6.931,3.1777c1.8483,0.5837,3.2734,1.0733,4.2769,1.4705c3.142,1.2176,5.3875,2.7594,6.7332,4.6271
	c1.3473,1.8661,2.0201,4.3353,2.0201,7.4076c0,4.5817-1.3132,8.1161-3.9413,10.6048c-2.6265,2.4903-6.37,3.7354-11.2273,3.7354
	c-4.4618,0-7.8356-1.1868-10.1184-3.5555c-2.2844-2.3703-3.4258-5.8593-3.4258-10.467V120.9448z"/>
<path d="M275.2193,125.2347c0,1.9066,0.3437,3.1583,1.0295,3.7533c0.6874,0.5966,2.3233,0.8949,4.9108,0.8949
	c0.3437,0,0.6274-0.0065,0.8528-0.0211c0.2238-0.013,0.4151-0.0324,0.5739-0.06l0.0389,5.6015
	c-0.3956,0.0259-0.9241,0.0535-1.584,0.0795c-1.6099,0.0794-2.654,0.12-3.1291,0.12c-3.0091,0-5.2465-0.6031-6.7121-1.8077
	s-2.1985-3.0253-2.1985-5.4621V94.2521h-6.3376V88.97h6.3376V76.7747h6.2176V88.97h7.406v5.2821h-7.406V125.2347z"/>
<path d="M321.5732,134.7678c-0.8187,0.1329-1.5256,0.2318-2.119,0.2983c-0.595,0.0648-1.143,0.0989-1.644,0.0989
	c-1.7964,0-3.2085-0.5691-4.238-1.7088c-1.0295-1.1381-1.584-2.7529-1.6634-4.8444c-0.976,2.3298-2.3898,4.1164-4.2364,5.3616
	c-1.8499,1.2451-4.0402,1.8661-6.5759,1.8661c-3.3009,0-5.8674-1.1122-7.7027-3.3366c-1.8353-2.2244-2.7529-5.3486-2.7529-9.3742
	c0-3.9446,0.8512-6.9504,2.5551-9.0159c1.7023-2.0655,5.3794-4.0516,11.0295-5.9582l0.1183-0.0389
	c4.6482-1.5629,6.9715-3.3901,6.9715-5.4815v-4.2105c0-1.8807-0.535-3.2507-1.6035-4.1116c-1.07-0.8609-2.7805-1.2905-5.1297-1.2905
	c-2.2714,0-3.9608,0.595-5.0697,1.7866c-1.109,1.1916-1.6635,3.0188-1.6635,5.4815v0.7944h-5.9792
	c0.0778-4.6595,1.1868-8.0626,3.3252-10.2076c2.1401-2.145,5.5188-3.2182,10.1411-3.2182c4.3288,0,7.4903,0.9874,9.4845,2.9588
	c1.9926,1.9731,2.9897,5.0924,2.9897,9.3548v26.7332c0,1.19,0.2108,2.0444,0.6339,2.5616c0.4215,0.5156,1.1089,0.775,2.059,0.775
	c0.1848,0,0.475-0.0405,0.8723-0.12c0.0519,0,0.1054-0.013,0.1573-0.0389L321.5732,134.7678z M311.4743,110.0223
	c-1.0036,1.1122-3.2215,2.2892-6.6553,3.5344c-0.2902,0.1054-0.501,0.1848-0.6323,0.2383
	c-2.9572,1.0328-4.8849,2.1984-5.7831,3.4955c-0.8982,1.297-1.3456,3.2182-1.3456,5.7604c0,2.2763,0.501,4.037,1.5045,5.2821
	c1.0036,1.2451,2.4157,1.8677,4.238,1.8677c2.6394,0,4.7455-1.0068,6.3165-3.0188c1.571-2.0136,2.3573-4.7147,2.3573-8.1031
	V110.0223z"/>
<circle cx="209.2462" cy="42.3695" r="3.1931"/>
<g>
	<path style="fill:#CF0A2C;" d="M194.6937,60.8025c0,2.2091,1.7909,4,4,4h20.4654c2.2091,0,4-1.7909,4-4V22.8911
		c0-2.2091-1.7909-4-4-4h-20.4654c-2.2091,0-4,1.7909-4,4V60.8025z"/>
</g>
<polygon style="stroke:#FFFFFF;stroke-width:0.5;stroke-miterlimit:10;" points="214.9816,75.502 202.9877,75.502 198.1102,66.0818 
	219.6192,66.0818 "/>
<path style="fill:#FFFFFF;" d="M203.3475,29.5079c0,1.7892-0.6712,3.2397-1.4992,3.2397h-8.5156
	c-0.828,0-1.4992-1.4505-1.4992-3.2397l0,0c0-1.7892,0.6712-3.2397,1.4992-3.2397h8.5156
	C202.6763,26.2682,203.3475,27.7187,203.3475,29.5079L203.3475,29.5079z"/>
<circle style="fill:#FFFFFF;" cx="208.9264" cy="41.7698" r="3.2367"/>
<rect x="205.8538" y="72.4984" width="6.2617" height="63.1043"/>
<rect x="201.7883" y="79.8198" style="fill:#FFFFFF;" width="14.3926" height="4.7975"/>
<g>
	<path style="fill:#FFFFFF;" d="M202.8678,66.3371c0,0.8004,0.6488,1.4493,1.4492,1.4493h8.739
		c0.8004,0,1.4493-0.6489,1.4493-1.4493c0-0.8004-0.6488-1.4493-1.4493-1.4493h-8.739
		C203.5166,64.8878,202.8678,65.5367,202.8678,66.3371C202.8678,66.3371,202.8678,65.5367,202.8678,66.3371z"/>
</g>
<path style="fill:#FFFFFF;" d="M226.2593,29.5079c0,1.7892-0.6712,3.2397-1.4992,3.2397h-8.5156
	c-0.828,0-1.4992-1.4505-1.4992-3.2397l0,0c0-1.7892,0.6712-3.2397,1.4992-3.2397h8.5156
	C225.588,26.2682,226.2593,27.7187,226.2593,29.5079L226.2593,29.5079z"/>
<path style="fill:#FFFFFF;" d="M203.1076,41.7698c0,1.7892-0.6712,3.2397-1.4992,3.2397h-8.5156
	c-0.828,0-1.4992-1.4505-1.4992-3.2397l0,0c0-1.7892,0.6712-3.2397,1.4992-3.2397h8.5156
	C202.4364,38.5301,203.1076,39.9805,203.1076,41.7698L203.1076,41.7698z"/>
<path style="fill:#FFFFFF;" d="M226.0194,41.7698c0,1.7892-0.6712,3.2397-1.4992,3.2397h-8.5156
	c-0.828,0-1.4992-1.4505-1.4992-3.2397l0,0c0-1.7892,0.6712-3.2397,1.4992-3.2397h8.5156
	C225.3482,38.5301,226.0194,39.9805,226.0194,41.7698L226.0194,41.7698z"/>
<path style="fill:#FFFFFF;" d="M203.1076,53.7698c0,1.7892-0.6712,3.2397-1.4992,3.2397h-8.5156
	c-0.828,0-1.4992-1.4505-1.4992-3.2397l0,0c0-1.7892,0.6712-3.2397,1.4992-3.2397h8.5156
	C202.4364,50.5301,203.1076,51.9805,203.1076,53.7698L203.1076,53.7698z"/>
<path style="fill:#FFFFFF;" d="M226.0194,53.7698c0,1.7892-0.6712,3.2397-1.4992,3.2397h-8.5156
	c-0.828,0-1.4992-1.4505-1.4992-3.2397l0,0c0-1.7892,0.6712-3.2397,1.4992-3.2397h8.5156
	C225.3482,50.5301,226.0194,51.9805,226.0194,53.7698L226.0194,53.7698z"/>
</svg>
